<svg width="689" height="786" viewBox="0 0 689 786" fill="none" xmlns="http://www.w3.org/2000/svg">
<path d="M395.954 747.027H287.683L386.955 739.845L329.809 344.928H352.743C367.107 344.928 378.705 333.297 378.705 318.958C378.705 304.627 367.099 292.996 352.743 292.996H239.141C239.141 292.996 295.126 288.598 305.126 288.127C308.246 287.975 310.87 286.546 312.661 284.266C319.027 274.326 336.411 246.077 350.716 212.966C368.562 171.631 343.542 137.806 295.118 137.806H260.62L283.764 132.533V108.783H304.402C312.88 108.783 319.776 101.904 319.776 93.4183C319.776 84.9242 312.888 78.0448 304.402 78.0448H283.764V57.4067C283.756 48.9294 276.876 42.05 268.391 42.05C259.897 42.05 253.017 48.9294 253.017 57.4067V78.0448H232.362C223.885 78.0448 217.006 84.9242 217.006 93.4183C217.006 101.904 223.885 108.783 232.362 108.783H253.017L253.127 137.798H241.655C193.222 137.798 168.362 171.623 186.41 212.958C197.267 237.835 218.074 275.84 227.627 292.988H184.249C169.893 292.988 158.27 304.619 158.27 318.949C158.27 333.297 169.901 344.919 184.249 344.919H208.982L148.573 747.01H141.004C126.674 747.01 115.043 758.641 115.043 772.972C115.043 787.302 126.674 798.933 141.004 798.933H395.937C410.267 798.933 421.924 787.302 421.924 772.972C421.94 758.649 410.284 747.027 395.954 747.027Z" fill="#1C110A"/>
</svg>
