<svg width="152" height="173" viewBox="0 0 152 173" fill="none" xmlns="http://www.w3.org/2000/svg">
<g clip-path="url(#clip0_2_7)">
<path fill-rule="evenodd" clip-rule="evenodd" d="M39.3918 149.335C36.2693 147.532 33.5326 145.132 31.3377 142.272C29.1429 139.411 27.5329 136.146 26.5997 132.664C25.6666 129.181 25.4285 125.549 25.8991 121.974C26.3697 118.4 27.5398 114.953 29.3425 111.83C32.0576 107.128 36.1061 103.336 40.9762 100.934C45.8464 98.5325 51.3193 97.6289 56.7029 98.3377C62.0866 99.0465 67.1392 101.336 71.2217 104.916C75.3043 108.496 78.2335 113.207 79.6389 118.452C81.0443 123.697 80.8628 129.241 79.1174 134.383C77.3719 139.525 74.1409 144.034 69.8329 147.34C65.5249 150.645 60.3335 152.599 54.915 152.954C49.4965 153.309 44.0944 152.05 39.3918 149.335Z" fill="#1C110A"/>
<path fill-rule="evenodd" clip-rule="evenodd" d="M63.5523 107.488C57.2463 103.847 51.6614 99.5535 48.0262 95.5522C44.391 91.5509 43.0032 88.1693 44.1683 86.1514C45.0371 84.6465 47.2809 83.9806 50.6159 84.2378C53.9509 84.495 58.2274 85.6637 62.9046 87.5962C67.5817 89.5287 72.4494 92.1382 76.8922 95.0946C81.3349 98.0511 85.1532 101.222 87.8641 104.206C90.575 107.19 92.0568 109.853 92.1221 111.858C92.1874 113.864 90.8333 115.122 88.231 115.473C85.6287 115.825 81.8951 115.253 77.5023 113.832C73.1095 112.41 68.2549 110.203 63.5523 107.488Z" fill="#1C110A"/>
<path fill-rule="evenodd" clip-rule="evenodd" d="M84.8025 105.65L54.5188 88.1655L75.305 17.1945L135.872 52.163L84.8025 105.65Z" fill="#1C110A"/>
<path fill-rule="evenodd" clip-rule="evenodd" d="M147.277 53.0748C149.975 48.4016 148.224 44.2757 142.025 40.6967L82.1585 6.13267C75.9595 2.55368 71.511 3.10075 68.813 7.77388C66.1149 12.447 67.8655 16.573 74.0645 20.152L133.931 54.716C140.13 58.295 144.579 57.7479 147.277 53.0748Z" fill="#1C110A"/>
<path fill-rule="evenodd" clip-rule="evenodd" d="M69.72 96.8048C62.4681 92.6179 55.976 87.8009 51.6719 83.4134C47.3679 79.0259 45.6044 75.4274 46.7695 73.4095C47.6383 71.9047 50.0912 71.3595 53.8182 71.8429C57.5451 72.3264 62.3786 73.8167 67.7074 76.1255C73.0362 78.4342 78.6211 81.4577 83.7557 84.8137C88.8903 88.1696 93.344 91.7071 96.5537 94.979C99.7634 98.2509 101.585 101.11 101.788 103.195C101.991 105.28 100.566 106.497 97.6937 106.693C94.8215 106.888 90.6308 106.053 85.6515 104.293C80.6722 102.533 75.128 99.9271 69.72 96.8048Z" fill="#1C110A"/>
<path fill-rule="evenodd" clip-rule="evenodd" d="M137.101 59.7166C138.932 56.5463 137.123 53.3887 131.676 50.2435L79.0655 19.8691C73.6179 16.7239 69.9789 16.7364 68.1486 19.9067C66.3182 23.077 68.1269 26.2346 73.5745 29.3798L126.184 59.7542C131.632 62.8994 135.271 62.8868 137.101 59.7166Z" fill="#1C110A"/>
</g>
<defs>
<clipPath id="clip0_2_7">
<rect width="90.6019" height="145.442" fill="white" transform="translate(78.6025 172.022) rotate(-150)"/>
</clipPath>
</defs>
</svg>
